HIERARCHY
ROOT Root
{
  OFFSET 0.0 0.0 0.0
  CHANNELS 6 Xposition Yposition Zposition Zrotation Yrotation Xrotation
  JOINT Hips
  {
    OFFSET 0.0 100.0 0.0
    CHANNELS 6 Xposition Yposition Zposition Zrotation Yrotation Xrotation
    JOINT Spine1
    {
      OFFSET 5.003913 -0.037094 -0.013727
      CHANNELS 3 Zrotation Yrotation Xrotation
      JOINT Spine2
      {
        OFFSET 7.125363 -1e-06 0.0
        CHANNELS 3 Zrotation Yrotation Xrotation
        JOINT Chest
        {
          OFFSET 7.594027 1e-06 0.0
          CHANNELS 3 Zrotation Yrotation Xrotation
          JOINT Neck1
          {
            OFFSET 26.313086 -0.460272 -0.181672
            CHANNELS 3 Zrotation Yrotation Xrotation
            JOINT Neck2
            {
              OFFSET 8.045911 0.0 0.0
              CHANNELS 3 Zrotation Yrotation Xrotation
              JOINT Head
              {
                OFFSET 6.432774 0.0 0.0
                CHANNELS 3 Zrotation Yrotation Xrotation
                JOINT HeadEnd
                {
                  OFFSET 16.169773 0.06451 0.00362
                  CHANNELS 3 Zrotation Yrotation Xrotation
                }
                JOINT Jaw
                {
                  OFFSET 0.108741 3.12938 0.002639
                  CHANNELS 3 Zrotation Yrotation Xrotation
                }
                JOINT LeftEye
                {
                  OFFSET 4.45173 8.166359 3.206392
                  CHANNELS 3 Zrotation Yrotation Xrotation
                }
                JOINT RightEye
                {
                  OFFSET 4.436895 8.135758 -3.222429
                  CHANNELS 3 Zrotation Yrotation Xrotation
                }
              }
            }
          }
          JOINT LeftShoulder
          {
            OFFSET 23.218927 5.195579 1.621656
            CHANNELS 3 Zrotation Yrotation Xrotation
            JOINT LeftArm
            {
              OFFSET 15.902118 2e-06 -2e-06
              CHANNELS 3 Zrotation Yrotation Xrotation
              JOINT LeftForeArm
              {
                OFFSET 28.739307 0.0 -1e-06
                CHANNELS 3 Zrotation Yrotation Xrotation
                JOINT LeftHand
                {
                  OFFSET 27.093981 -4e-06 0.0
                  CHANNELS 3 Zrotation Yrotation Xrotation
                  JOINT LeftHandThumb1
                  {
                    OFFSET 2.276781 3.380274 0.83384
                    CHANNELS 3 Zrotation Yrotation Xrotation
                    JOINT LeftHandThumb2
                    {
                      OFFSET 4.705309 -1e-06 -1e-06
                      CHANNELS 3 Zrotation Yrotation Xrotation
                      JOINT LeftHandThumb3
                      {
                        OFFSET 2.798515 0.0 3e-06
                        CHANNELS 3 Zrotation Yrotation Xrotation
                        JOINT LeftHandThumbEnd
                        {
                          OFFSET 3.180793 4e-06 -4e-06
                          CHANNELS 3 Zrotation Yrotation Xrotation
                        }
                      }
                    }
                  }
                  JOINT LeftHandIndex1
                  {
                    OFFSET 3.247786 2.352677 0.137192
                    CHANNELS 3 Zrotation Yrotation Xrotation
                    JOINT LeftHandIndex2
                    {
                      OFFSET 6.367095 1e-06 0.0
                      CHANNELS 3 Zrotation Yrotation Xrotation
                      JOINT LeftHandIndex3
                      {
                        OFFSET 3.662364 0.0 0.0
                        CHANNELS 3 Zrotation Yrotation Xrotation
                        JOINT LeftHandIndex4
                        {
                          OFFSET 2.329242 4e-06 -4e-06
                          CHANNELS 3 Zrotation Yrotation Xrotation
                          JOINT LeftHandIndexEnd
                          {
                            OFFSET 2.767823 1e-06 0.0
                            CHANNELS 3 Zrotation Yrotation Xrotation
                          }
                        }
                      }
                    }
                  }
                  JOINT LeftHandMiddle1
                  {
                    OFFSET 3.163612 0.945023 -0.406112
                    CHANNELS 3 Zrotation Yrotation Xrotation
                    JOINT LeftHandMiddle2
                    {
                      OFFSET 6.276789 3e-06 0.0
                      CHANNELS 3 Zrotation Yrotation Xrotation
                      JOINT LeftHandMiddle3
                      {
                        OFFSET 4.35652 -1e-06 4e-06
                        CHANNELS 3 Zrotation Yrotation Xrotation
                        JOINT LeftHandMiddle4
                        {
                          OFFSET 2.996877 0.0 8e-06
                          CHANNELS 3 Zrotation Yrotation Xrotation
                          JOINT LeftHandMiddleEnd
                          {
                            OFFSET 2.323256 3e-06 -4e-06
                            CHANNELS 3 Zrotation Yrotation Xrotation
                          }
                        }
                      }
                    }
                  }
                  JOINT LeftHandRing1
                  {
                    OFFSET 2.882606 -0.309162 0.107445
                    CHANNELS 3 Zrotation Yrotation Xrotation
                    JOINT LeftHandRing2
                    {
                      OFFSET 6.033198 0.0 4e-06
                      CHANNELS 3 Zrotation Yrotation Xrotation
                      JOINT LeftHandRing3
                      {
                        OFFSET 4.350578 3e-06 0.0
                        CHANNELS 3 Zrotation Yrotation Xrotation
                        JOINT LeftHandRing4
                        {
                          OFFSET 2.651321 2e-06 -7e-06
                          CHANNELS 3 Zrotation Yrotation Xrotation
                          JOINT LeftHandRingEnd
                          {
                            OFFSET 1.937663 1e-06 -4e-06
                            CHANNELS 3 Zrotation Yrotation Xrotation
                          }
                        }
                      }
                    }
                  }
                  JOINT LeftHandPinky1
                  {
                    OFFSET 2.865315 -1.525436 0.575687
                    CHANNELS 3 Zrotation Yrotation Xrotation
                    JOINT LeftHandPinky2
                    {
                      OFFSET 5.54936 1e-06 -8e-06
                      CHANNELS 3 Zrotation Yrotation Xrotation
                      JOINT LeftHandPinky3
                      {
                        OFFSET 3.070974 0.0 -4e-06
                        CHANNELS 3 Zrotation Yrotation Xrotation
                        JOINT LeftHandPinky4
                        {
                          OFFSET 1.549672 1e-06 0.0
                          CHANNELS 3 Zrotation Yrotation Xrotation
                          JOINT LeftHandPinkyEnd
                          {
                            OFFSET 1.952123 0.0 0.0
                            CHANNELS 3 Zrotation Yrotation Xrotation
                          }
                        }
                      }
                    }
                  }
                }
              }
            }
          }
          JOINT RightShoulder
          {
            OFFSET 23.161716 5.296122 -1.380114
            CHANNELS 3 Zrotation Yrotation Xrotation
            JOINT RightArm
            {
              OFFSET -16.027195 -2e-06 1.1e-05
              CHANNELS 3 Zrotation Yrotation Xrotation
              JOINT RightForeArm
              {
                OFFSET -28.736639 4e-06 2e-06
                CHANNELS 3 Zrotation Yrotation Xrotation
                JOINT RightHand
                {
                  OFFSET -27.133619 6e-06 0.0
                  CHANNELS 3 Zrotation Yrotation Xrotation
                  JOINT RightHandThumb1
                  {
                    OFFSET -2.274328 -3.351035 -0.83067
                    CHANNELS 3 Zrotation Yrotation Xrotation
                    JOINT RightHandThumb2
                    {
                      OFFSET -4.703594 -3e-06 2e-06
                      CHANNELS 3 Zrotation Yrotation Xrotation
                      JOINT RightHandThumb3
                      {
                        OFFSET -2.794935 -4e-06 -3e-06
                        CHANNELS 3 Zrotation Yrotation Xrotation
                        JOINT RightHandThumbEnd
                        {
                          OFFSET -3.183852 4e-06 1e-06
                          CHANNELS 3 Zrotation Yrotation Xrotation
                        }
                      }
                    }
                  }
                  JOINT RightHandIndex1
                  {
                    OFFSET -3.253496 -2.33755 -0.127667
                    CHANNELS 3 Zrotation Yrotation Xrotation
                    JOINT RightHandIndex2
                    {
                      OFFSET -6.344434 0.0 0.0
                      CHANNELS 3 Zrotation Yrotation Xrotation
                      JOINT RightHandIndex3
                      {
                        OFFSET -3.654871 0.0 -8e-06
                        CHANNELS 3 Zrotation Yrotation Xrotation
                        JOINT RightHandIndex4
                        {
                          OFFSET -2.327586 -1e-06 0.0
                          CHANNELS 3 Zrotation Yrotation Xrotation
                          JOINT RightHandIndexEnd
                          {
                            OFFSET -2.770001 3e-06 8e-06
                            CHANNELS 3 Zrotation Yrotation Xrotation
                          }
                        }
                      }
                    }
                  }
                  JOINT RightHandMiddle1
                  {
                    OFFSET -3.168223 -0.944764 0.411762
                    CHANNELS 3 Zrotation Yrotation Xrotation
                    JOINT RightHandMiddle2
                    {
                      OFFSET -6.266691 -1e-06 -4e-06
                      CHANNELS 3 Zrotation Yrotation Xrotation
                      JOINT RightHandMiddle3
                      {
                        OFFSET -4.348901 0.0 0.0
                        CHANNELS 3 Zrotation Yrotation Xrotation
                        JOINT RightHandMiddle4
                        {
                          OFFSET -3.00024 2e-06 -4e-06
                          CHANNELS 3 Zrotation Yrotation Xrotation
                          JOINT RightHandMiddleEnd
                          {
                            OFFSET -2.321477 -4e-06 -4e-06
                            CHANNELS 3 Zrotation Yrotation Xrotation
                          }
                        }
                      }
                    }
                  }
                  JOINT RightHandRing1
                  {
                    OFFSET -2.885654 0.293261 -0.119232
                    CHANNELS 3 Zrotation Yrotation Xrotation
                    JOINT RightHandRing2
                    {
                      OFFSET -6.032835 -1e-06 -4e-06
                      CHANNELS 3 Zrotation Yrotation Xrotation
                      JOINT RightHandRing3
                      {
                        OFFSET -4.33881 0.0 -4e-06
                        CHANNELS 3 Zrotation Yrotation Xrotation
                        JOINT RightHandRing4
                        {
                          OFFSET -2.654903 -4e-06 -4e-06
                          CHANNELS 3 Zrotation Yrotation Xrotation
                          JOINT RightHandRingEnd
                          {
                            OFFSET -1.935122 0.0 4e-06
                            CHANNELS 3 Zrotation Yrotation Xrotation
                          }
                        }
                      }
                    }
                  }
                  JOINT RightHandPinky1
                  {
                    OFFSET -2.866241 1.503904 -0.60527
                    CHANNELS 3 Zrotation Yrotation Xrotation
                    JOINT RightHandPinky2
                    {
                      OFFSET -5.553177 -2e-06 0.0
                      CHANNELS 3 Zrotation Yrotation Xrotation
                      JOINT RightHandPinky3
                      {
                        OFFSET -3.062664 -1e-06 -4e-06
                        CHANNELS 3 Zrotation Yrotation Xrotation
                        JOINT RightHandPinky4
                        {
                          OFFSET -1.546529 2e-06 4e-06
                          CHANNELS 3 Zrotation Yrotation Xrotation
                          JOINT RightHandPinkyEnd
                          {
                            OFFSET -1.952341 0.0 -4e-06
                            CHANNELS 3 Zrotation Yrotation Xrotation
                          }
                        }
                      }
                    }
                  }
                }
              }
            }
          }
        }
      }
    }
    JOINT LeftLeg
    {
      OFFSET -8.443107 2.567604 10.043214
      CHANNELS 3 Zrotation Yrotation Xrotation
      JOINT LeftShin
      {
        OFFSET 43.229198 1e-06 -1e-06
        CHANNELS 3 Zrotation Yrotation Xrotation
        JOINT LeftFoot
        {
          OFFSET 42.298611 1e-06 1e-06
          CHANNELS 3 Zrotation Yrotation Xrotation
          JOINT LeftToeBase
          {
            OFFSET 14.165858 1e-06 0.0
            CHANNELS 3 Zrotation Yrotation Xrotation
            JOINT LeftToeEnd
            {
              OFFSET 6.7141 -0.234461 0.0
              CHANNELS 3 Zrotation Yrotation Xrotation
            }
          }
        }
      }
    }
    JOINT RightLeg
    {
      OFFSET -8.303923 2.592729 -10.047278
      CHANNELS 3 Zrotation Yrotation Xrotation
      JOINT RightShin
      {
        OFFSET -43.369682 0.0 1e-06
        CHANNELS 3 Zrotation Yrotation Xrotation
        JOINT RightFoot
        {
          OFFSET -42.260784 4e-06 2e-06
          CHANNELS 3 Zrotation Yrotation Xrotation
          JOINT RightToeBase
          {
            OFFSET -14.222245 -2e-06 -1e-06
            CHANNELS 3 Zrotation Yrotation Xrotation
            JOINT RightToeEnd
            {
              OFFSET -6.660062 0.232574 -2e-06
              CHANNELS 3 Zrotation Yrotation Xrotation
            }
          }
        }
      }
    }
  }
}
MOTION
Frames: 4
Frame Time: 0.03333333333333333
0.0 0.0 0.0 0.0 -0.0 0.0 -0.16186 100.659515 6.526348 89.907806 -1.50182 89.864403 0.358653 -0.426951 0.00441 -10.746159 -0.59461 0.043717 19.295547 0.247768 -1.70526 13.825388 -0.639567 2.495244 -2.451961 -0.296124 -1.601662 -45.903782 -0.238861 -2.720703 -0.006393 0.000143 -3.7e-05 0.087871 0.007302 0.030841 0.212453 -0.041736 -0.000306 0.201265 0.05682 0.083961 -135.891785 -74.532646 157.379517 43.431599 -51.301586 3.724015 35.80368 0.071268 -0.270099 -3.212733 -1.049443 18.269417 17.695045 -26.33886 52.456398 -19.48888 -14.410825 29.44544 0.001049 -8.789039 -0.013486 15.608349 -18.042686 6.251777 -0.603413 -1.784922 -3.900385 -4.825931 -11.064019 -2.93644 0.010033 -21.014458 -0.017879 -5.033194 -25.061846 -4.05418 -0.013387 8.3e-05 0.006812 -10.649549 -5.68749 -3.591104 10.590876 -17.941282 -3.103483 -0.00896 -13.840473 -0.003737 -0.468015 -31.219568 -4.057552 -11.323503 -59.870781 7.345966 -14.006865 -7.155461 -2.88616 13.792393 -8.405655 -3.226015 0.3411 -34.272259 0.780796 -0.953461 -17.749186 2.600869 0.0 0.0063 0.005276 -17.374573 -20.107658 -4.207854 21.794592 -1.647238 3.870239 0.008443 -6.351487 0.001241 -1.702603 -22.611279 -6.218155 -0.004975 0.005321 0.014596 31.038811 -75.435387 170.435638 50.586422 -48.674442 9.077364 32.799343 -0.568246 -0.003757 4.799529 -3.590777 19.468473 22.221676 -20.423807 50.017815 -16.723637 -16.779737 28.525703 -0.007785 -12.723387 0.000689 16.123848 -17.425348 2.473527 -0.119608 -1.510475 -4.292554 -5.034337 -5.620741 -2.948347 -0.00582 -11.030066 0.000772 -6.103459 -15.90826 -3.836921 0.000795 -0.012001 -0.00505 -10.30246 -5.677258 -4.353755 11.040909 -11.318347 -2.374147 -1.37663 -14.248755 -6.322299 -0.613143 -26.960548 -3.820168 -4.213917 -50.254547 -3.360115 -13.737225 -7.366503 -3.72829 18.177402 -14.066756 -3.247098 -0.016206 -18.791916 0.022351 -0.417472 -8.456704 2.569282 0.002362 0.002512 0.002877 -15.947158 -20.102736 -5.490024 30.450207 -7.204802 1.733009 -0.000915 -8.165812 0.006322 -1.859409 -22.849958 -6.15062 -0.0071 -0.000793 -0.005143 175.994675 -5.506191 -11.351527 6.938599 0.011671 0.439115 -72.660843 3.676468 -5.13918 -6.460122 1.525156 2.099569 -1.000574 0.003128 0.000209 -5.03561 -3.655743 -9.19871 8.513363 0.090792 0.106369 -73.834427 2.872283 -2.363006 -6.049794 0.638621 1.653418 -0.997476 0.000415 -0.000312 
0.0 0.0 0.0 0.0 -0.0 0.0 -0.240542 100.733589 5.844237 89.887856 -2.088643 89.934242 0.896288 -0.415215 -0.006857 -10.588182 -0.548338 0.135287 19.396801 0.20077 -1.602588 13.299584 -0.60833 2.476551 -2.415119 -0.294684 -1.736268 -46.567913 -0.277833 -2.767024 3.1e-05 0.000491 -0.000234 0.105562 0.015113 0.036498 0.206579 -0.034291 0.001847 0.206552 0.062128 0.091133 -135.398071 -75.018227 156.868225 44.461437 -51.346462 2.46822 36.342255 0.08494 -0.247075 -2.986522 -1.307418 18.816975 17.614439 -26.349001 52.50782 -19.480501 -14.412659 29.458107 -0.010278 -8.776198 0.009218 15.548212 -17.990189 6.301165 -0.611143 -1.797138 -3.899836 -4.800465 -11.047622 -2.948373 0.007939 -20.983927 0.001495 -4.996669 -25.030926 -4.033072 0.001389 -0.016597 -0.008358 -10.636288 -5.682448 -3.564507 10.592612 -17.923815 -3.131931 -0.00087 -13.812623 0.006411 -0.480872 -31.169804 -4.028187 -11.43346 -59.841564 7.479806 -13.981854 -7.143424 -2.882497 13.771535 -8.405105 -3.209001 0.365269 -34.179413 0.756533 -0.945794 -17.719166 2.623399 0.006038 -0.002958 -0.000316 -17.338938 -20.088045 -4.23128 21.745558 -1.658569 3.876348 0.011354 -6.335536 -0.009526 -1.684253 -22.571512 -6.188277 -0.007897 0.013412 0.006735 31.399128 -76.295624 170.117355 51.562149 -48.708969 8.113115 33.307777 -0.524803 -0.028404 4.915714 -3.566098 19.901833 22.218737 -20.424009 49.977402 -16.705099 -16.806406 28.484013 -0.003796 -12.709532 0.006212 15.981091 -17.398872 2.527501 -0.098136 -1.5171 -4.276405 -5.045668 -5.606369 -2.944869 -0.001046 -11.011147 0.001421 -6.103153 -15.867802 -3.844112 0.002659 -0.014966 -0.000665 -10.282427 -5.673239 -4.341834 11.031115 -11.295389 -2.351732 -1.371472 -14.222074 -6.322113 -0.632902 -26.896406 -3.797022 -4.228374 -49.92392 -3.316679 -13.714824 -7.357723 -3.713655 18.161932 -14.039198 -3.234408 -0.006377 -18.752583 0.023844 -0.427215 -8.460073 2.557156 0.002169 0.006035 0.002782 -15.927321 -20.072428 -5.469322 30.468948 -7.207829 1.740134 -0.007675 -8.160748 0.00818 -1.862864 -22.843557 -6.156466 -0.006434 0.010188 -0.00269 175.17955 -5.541174 -11.159625 6.544552 0.018841 0.450909 -71.993004 3.454008 -5.040498 -6.487495 1.536409 2.097624 -0.99511 -0.003211 -0.000503 -5.60518 -3.562672 -9.180799 7.753 0.077559 0.053896 -73.035797 2.8491 -2.251127 -6.197244 0.608683 1.637822 -1.000462 -0.001651 -0.000849 
0.0 0.0 0.0 0.0 -0.0 0.0 -0.355403 100.822388 4.991542 89.882576 -2.795179 90.050339 1.605458 -0.41995 0.026964 -10.415937 -0.526178 0.156362 19.607616 0.147058 -1.447235 12.744801 -0.595433 2.464121 -2.414895 -0.313065 -1.796645 -47.769169 -0.310136 -2.875632 -0.000707 0.000369 8.9e-05 0.099284 0.017753 0.033565 0.181244 -0.034723 -0.005289 0.169077 0.068919 0.09323 -134.509918 -75.685844 155.94545 45.958847 -51.378204 0.850179 37.08128 0.097366 -0.273315 -2.639233 -1.442841 19.359068 17.635647 -26.344954 52.451988 -19.46699 -14.411868 29.401247 -0.009072 -8.779101 0.002255 15.52859 -17.97773 6.353749 -0.605073 -1.796693 -3.874898 -4.797054 -11.033442 -2.952999 0.029548 -20.976519 -0.001053 -5.02194 -25.011913 -4.000464 0.009686 -0.011768 -0.005811 -10.635431 -5.677166 -3.547241 10.600008 -17.918121 -3.132767 0.019198 -13.830291 0.013933 -0.474293 -31.198593 -3.992678 -11.540202 -59.95293 7.732162 -13.978937 -7.130495 -2.870124 13.777977 -8.401626 -3.21775 0.359522 -34.173378 0.789865 -0.949973 -17.718998 2.627234 0.000338 0.006286 0.002958 -17.332958 -20.063643 -4.201427 21.758827 -1.655409 3.859425 0.000777 -6.334732 -0.005664 -1.695784 -22.560154 -6.167993 -0.003067 -0.005929 -0.004156 31.39654 -77.295418 170.088928 52.805492 -48.629433 7.149558 33.789635 -0.470942 0.006133 5.13097 -3.367006 20.461966 22.222101 -20.346876 49.932507 -16.700676 -16.759874 28.455956 0.004222 -12.705019 -0.004897 15.940824 -17.394913 2.622775 -0.117368 -1.515756 -4.278873 -5.032002 -5.610076 -2.952071 0.003455 -11.011309 -0.000936 -6.117134 -15.876329 -3.843195 0.001863 -0.007567 0.001322 -10.299249 -5.680151 -4.339738 11.045106 -11.295434 -2.379655 -1.390003 -14.232034 -6.315858 -0.62402 -26.907871 -3.820039 -4.200274 -49.889149 -3.366799 -13.727688 -7.363605 -3.720461 18.155241 -14.039792 -3.239549 -0.009446 -18.783777 -0.004691 -0.417553 -8.458063 2.552439 -0.003005 0.010871 -0.0 -15.946939 -20.09445 -5.481431 30.463921 -7.190208 1.750196 -0.01612 -8.154442 -0.009309 -1.849787 -22.805637 -6.17124 -0.00737 0.000734 0.001999 174.097122 -5.59681 -10.978294 6.174978 0.031895 0.427411 -70.971336 3.303859 -5.005097 -6.464354 1.540478 2.093303 -0.998586 5.8e-05 0.000308 -6.42695 -3.48877 -9.034962 7.106337 0.064441 -0.004722 -72.151588 2.81599 -2.107221 -6.293089 0.582898 1.621572 -0.996692 0.000807 -0.000306 
0.0 0.0 0.0 0.0 -0.0 0.0 -0.417177 100.840912 4.058144 89.901207 -3.685235 90.090439 2.455561 -0.462384 0.040587 -10.149984 -0.515114 0.225484 19.805412 0.083165 -1.298223 12.055208 -0.579862 2.443617 -2.440106 -0.343008 -1.817067 -49.190056 -0.278363 -2.941597 3.3e-05 0.001072 -8.8e-05 0.09422 0.019744 0.037408 0.157039 -0.039261 -0.004893 0.12576 0.083108 0.099672 -133.165268 -76.141472 154.563065 47.261894 -51.144905 -0.670286 38.17609 0.055411 -0.240819 -2.110023 -1.436416 19.855074 17.615433 -26.348076 52.482948 -19.394205 -14.382136 29.416162 0.001909 -8.764081 -0.006472 15.587192 -17.993217 6.359229 -0.629464 -1.791331 -3.906428 -4.808643 -11.035722 -2.929944 -0.027596 -20.94467 0.018436 -5.04253 -24.981678 -4.02783 -0.009815 -0.015819 -0.001097 -10.629721 -5.678205 -3.588604 10.528502 -17.880005 -3.065993 -0.016762 -13.773661 0.011226 -0.528406 -31.107967 -4.017356 -11.47627 -59.693253 7.511242 -13.974464 -7.148122 -2.888045 13.739617 -8.382157 -3.189997 0.317704 -34.169369 0.792498 -0.972026 -17.7038 2.624022 0.003207 -0.000902 -0.002561 -17.337769 -20.075346 -4.223644 21.728067 -1.62938 3.890405 -0.014991 -6.33222 0.006526 -1.685763 -22.589052 -6.216993 -0.003366 0.009173 -0.0 31.018133 -78.201195 170.102005 54.460751 -48.39576 6.046661 34.180523 -0.504176 -0.005751 5.306738 -3.081421 21.453089 22.239761 -20.454483 49.988941 -16.692375 -16.757818 28.473347 -0.007751 -12.702381 -0.001765 15.825045 -17.357248 2.718664 -0.105235 -1.512756 -4.272957 -5.034151 -5.608264 -2.955901 0.009638 -11.027036 0.002883 -6.101068 -15.911623 -3.827736 0.005645 -0.00027 -0.002995 -10.283051 -5.672379 -4.340836 11.041874 -11.317642 -2.363228 -1.366339 -14.239472 -6.318791 -0.637901 -26.957117 -3.79922 -4.357486 -49.961945 -3.212064 -13.710852 -7.353247 -3.723181 18.160059 -14.066012 -3.230654 0.00787 -18.797901 0.017644 -0.439188 -8.473113 2.56387 -0.004791 0.001878 -0.000266 -15.913404 -20.085394 -5.483014 30.444933 -7.217222 1.746501 -0.022903 -8.181653 0.008856 -1.854022 -22.902138 -6.157752 -0.010136 0.008767 0.001067 172.541672 -5.613886 -10.778548 6.141396 0.032545 0.421631 -70.169853 3.06732 -5.034359 -6.374267 1.535794 2.097749 -0.991176 0.002353 0.000985 -8.297442 -3.504293 -8.781391 7.684455 0.059438 -0.059363 -71.693153 2.731099 -1.929397 -6.336218 0.574457 1.612495 -1.000378 0.001893 -0.000399 
